<svg width="24" height="18" viewBox="0 0 16 10" fill="none" xmlns="http://www.w3.org/2000/svg">
<path d="M0.889382 9V0.272727H4.33256C4.99166 0.272727 5.55416 0.390625 6.02006 0.62642C6.48881 0.859375 6.84535 1.19034 7.08967 1.61932C7.33683 2.04545 7.46041 2.54687 7.46041 3.12358C7.46041 3.70312 7.33541 4.2017 7.08541 4.61932C6.83541 5.03409 6.47319 5.35227 5.99876 5.57386C5.52717 5.79545 4.95614 5.90625 4.28569 5.90625H1.98029V4.4233H3.98739C4.33967 4.4233 4.63228 4.375 4.86523 4.27841C5.09819 4.18182 5.27148 4.03693 5.38512 3.84375C5.5016 3.65057 5.55984 3.41051 5.55984 3.12358C5.55984 2.83381 5.5016 2.58949 5.38512 2.39062C5.27148 2.19176 5.09677 2.04119 4.86097 1.93892C4.62802 1.83381 4.33398 1.78125 3.97887 1.78125H2.73455V9H0.889382ZM5.60245 5.02841L7.77148 9H5.73455L3.61239 5.02841H5.60245ZM13.4988 2.78267C13.4647 2.43892 13.3184 2.17187 13.0598 1.98153C12.8013 1.79119 12.4505 1.69602 12.0073 1.69602C11.7061 1.69602 11.4519 1.73864 11.2445 1.82386C11.0371 1.90625 10.878 2.02131 10.7672 2.16903C10.6593 2.31676 10.6053 2.48438 10.6053 2.67188C10.5996 2.82812 10.6323 2.96449 10.7033 3.08097C10.7772 3.19744 10.878 3.2983 11.0059 3.38352C11.1337 3.46591 11.2814 3.53835 11.449 3.60085C11.6167 3.66051 11.7956 3.71165 11.986 3.75426L12.7701 3.94176C13.1507 4.02699 13.5002 4.14062 13.8184 4.28267C14.1365 4.42472 14.4121 4.59943 14.6451 4.80682C14.878 5.0142 15.0584 5.25852 15.1863 5.53977C15.3169 5.82102 15.3837 6.14347 15.3865 6.5071C15.3837 7.04119 15.2473 7.50426 14.9775 7.89631C14.7104 8.28551 14.324 8.58807 13.8184 8.80398C13.3155 9.01705 12.709 9.12358 11.9988 9.12358C11.2942 9.12358 10.6806 9.01562 10.1578 8.79972C9.63796 8.58381 9.23171 8.2642 8.9391 7.84091C8.64933 7.41477 8.49734 6.88778 8.48313 6.25994H10.2686C10.2885 6.55256 10.3723 6.79687 10.5201 6.9929C10.6706 7.18608 10.8709 7.33239 11.1209 7.43182C11.3738 7.52841 11.6593 7.5767 11.9775 7.5767C12.29 7.5767 12.5613 7.53125 12.7914 7.44034C13.0243 7.34943 13.2047 7.22301 13.3326 7.06108C13.4604 6.89915 13.5243 6.71307 13.5243 6.50284C13.5243 6.30682 13.4661 6.14205 13.3496 6.00852C13.236 5.875 13.0684 5.76136 12.8468 5.66761C12.628 5.57386 12.3596 5.48864 12.0414 5.41193L11.0911 5.1733C10.3553 4.99432 9.77433 4.71449 9.34819 4.33381C8.92205 3.95312 8.7104 3.44034 8.71325 2.79545C8.7104 2.26705 8.85103 1.8054 9.13512 1.41051C9.42205 1.01562 9.81552 0.707386 10.3155 0.485795C10.8155 0.264204 11.3837 0.153409 12.0201 0.153409C12.6678 0.153409 13.2331 0.264204 13.7161 0.485795C14.2019 0.707386 14.5797 1.01562 14.8496 1.41051C15.1195 1.8054 15.2587 2.26278 15.2672 2.78267H13.4988Z" fill="url(#paint0_linear_3_2)"/>
<defs>
<linearGradient id="paint0_linear_3_2" x1="5.96047e-09" y1="10.5" x2="16" y2="10.5" gradientUnits="userSpaceOnUse">
<stop stop-color="#D5CECE"/>
<stop offset="1" stop-color="#848282"/>
</linearGradient>
</defs>
</svg>
