<svg width="57" height="25" viewBox="0 0 57 25" fill="none" xmlns="http://www.w3.org/2000/svg">
<path d="M20.9734 9H17.8796V0.272727H20.9989C21.8768 0.272727 22.6325 0.447443 23.266 0.796875C23.8995 1.14347 24.3867 1.64205 24.7276 2.29261C25.0714 2.94318 25.2433 3.72159 25.2433 4.62784C25.2433 5.53693 25.0714 6.31818 24.7276 6.97159C24.3867 7.625 23.8967 8.12642 23.2575 8.47585C22.6211 8.82528 21.8597 9 20.9734 9ZM19.7248 7.41903H20.8967C21.4421 7.41903 21.9009 7.32244 22.2731 7.12926C22.6481 6.93324 22.9293 6.63068 23.1168 6.22159C23.3072 5.80966 23.4023 5.27841 23.4023 4.62784C23.4023 3.98295 23.3072 3.45597 23.1168 3.04688C22.9293 2.63778 22.6495 2.33665 22.2773 2.14347C21.9052 1.95028 21.4464 1.85369 20.9009 1.85369H19.7248V7.41903ZM29.5589 9.12784C28.8857 9.12784 28.3061 8.99148 27.8203 8.71875C27.3374 8.44318 26.9652 8.05398 26.7038 7.55114C26.4425 7.04545 26.3118 6.44744 26.3118 5.7571C26.3118 5.08381 26.4425 4.4929 26.7038 3.98438C26.9652 3.47585 27.3331 3.07955 27.8075 2.79545C28.2848 2.51136 28.8445 2.36932 29.4865 2.36932C29.9183 2.36932 30.3203 2.43892 30.6925 2.57812C31.0675 2.71449 31.3942 2.92045 31.6726 3.19602C31.9538 3.47159 32.1726 3.81818 32.3288 4.2358C32.4851 4.65057 32.5632 5.13636 32.5632 5.69318V6.19176H27.0362V5.06676H30.8544C30.8544 4.8054 30.7976 4.57386 30.6839 4.37216C30.5703 4.17045 30.4126 4.01278 30.2109 3.89915C30.0121 3.78267 29.7805 3.72443 29.5163 3.72443C29.2408 3.72443 28.9964 3.78835 28.7834 3.91619C28.5732 4.04119 28.4084 4.21023 28.2891 4.4233C28.1697 4.63352 28.1087 4.8679 28.1058 5.12642V6.19602C28.1058 6.51989 28.1655 6.79972 28.2848 7.03551C28.407 7.27131 28.5788 7.45312 28.8004 7.58097C29.022 7.70881 29.2848 7.77273 29.5888 7.77273C29.7905 7.77273 29.9751 7.74432 30.1428 7.6875C30.3104 7.63068 30.4538 7.54545 30.5732 7.43182C30.6925 7.31818 30.7834 7.17898 30.8459 7.0142L32.5249 7.125C32.4396 7.52841 32.2649 7.88068 32.0007 8.18182C31.7393 8.48011 31.4013 8.71307 30.9865 8.88068C30.5746 9.04545 30.0987 9.12784 29.5589 9.12784ZM39.6744 2.45455L37.386 9H35.3406L33.0522 2.45455H34.9698L36.3292 7.13778H36.3974L37.7525 2.45455H39.6744ZM0.805398 24V15.2727H6.58381V16.794H2.65057V18.8736H6.20028V20.3949H2.65057V24H0.805398ZM11.5781 21.2131V17.4545H13.3935V24H11.6506V22.8111H11.5824C11.4347 23.1946 11.1889 23.5028 10.8452 23.7358C10.5043 23.9687 10.0881 24.0852 9.59659 24.0852C9.15909 24.0852 8.77415 23.9858 8.44176 23.7869C8.10938 23.5881 7.84943 23.3054 7.66193 22.9389C7.47727 22.5724 7.38352 22.1335 7.38068 21.6222V17.4545H9.19602V21.2983C9.19886 21.6847 9.30256 21.9901 9.5071 22.2145C9.71165 22.4389 9.9858 22.5511 10.3295 22.5511C10.5483 22.5511 10.7528 22.5014 10.9432 22.402C11.1335 22.2997 11.2869 22.1491 11.4034 21.9503C11.5227 21.7514 11.581 21.5057 11.5781 21.2131ZM16.6609 15.2727V24H14.8455V15.2727H16.6609ZM19.9304 15.2727V24H18.1151V15.2727H19.9304ZM28.9304 17.7827C28.8963 17.4389 28.75 17.1719 28.4915 16.9815C28.233 16.7912 27.8821 16.696 27.4389 16.696C27.1378 16.696 26.8835 16.7386 26.6761 16.8239C26.4688 16.9062 26.3097 17.0213 26.1989 17.169C26.0909 17.3168 26.0369 17.4844 26.0369 17.6719C26.0313 17.8281 26.0639 17.9645 26.1349 18.081C26.2088 18.1974 26.3097 18.2983 26.4375 18.3835C26.5653 18.4659 26.7131 18.5384 26.8807 18.6009C27.0483 18.6605 27.2273 18.7116 27.4176 18.7543L28.2017 18.9418C28.5824 19.027 28.9318 19.1406 29.25 19.2827C29.5682 19.4247 29.8438 19.5994 30.0767 19.8068C30.3097 20.0142 30.4901 20.2585 30.6179 20.5398C30.7486 20.821 30.8153 21.1435 30.8182 21.5071C30.8153 22.0412 30.679 22.5043 30.4091 22.8963C30.142 23.2855 29.7557 23.5881 29.25 23.804C28.7472 24.017 28.1406 24.1236 27.4304 24.1236C26.7259 24.1236 26.1122 24.0156 25.5895 23.7997C25.0696 23.5838 24.6634 23.2642 24.3707 22.8409C24.081 22.4148 23.929 21.8878 23.9148 21.2599H25.7003C25.7202 21.5526 25.804 21.7969 25.9517 21.9929C26.1023 22.1861 26.3026 22.3324 26.5526 22.4318C26.8054 22.5284 27.0909 22.5767 27.4091 22.5767C27.7216 22.5767 27.9929 22.5312 28.223 22.4403C28.456 22.3494 28.6364 22.223 28.7642 22.0611C28.892 21.8991 28.956 21.7131 28.956 21.5028C28.956 21.3068 28.8977 21.142 28.7812 21.0085C28.6676 20.875 28.5 20.7614 28.2784 20.6676C28.0597 20.5739 27.7912 20.4886 27.473 20.4119L26.5227 20.1733C25.7869 19.9943 25.206 19.7145 24.7798 19.3338C24.3537 18.9531 24.142 18.4403 24.1449 17.7955C24.142 17.267 24.2827 16.8054 24.5668 16.4105C24.8537 16.0156 25.2472 15.7074 25.7472 15.4858C26.2472 15.2642 26.8153 15.1534 27.4517 15.1534C28.0994 15.1534 28.6648 15.2642 29.1477 15.4858C29.6335 15.7074 30.0114 16.0156 30.2812 16.4105C30.5511 16.8054 30.6903 17.2628 30.6989 17.7827H28.9304ZM35.5067 17.4545V18.8182H31.565V17.4545H35.5067ZM32.4599 15.8864H34.2752V21.9886C34.2752 22.1562 34.3008 22.2869 34.3519 22.3807C34.4031 22.4716 34.4741 22.5355 34.565 22.5724C34.6587 22.6094 34.7667 22.6278 34.8888 22.6278C34.9741 22.6278 35.0593 22.6207 35.1445 22.6065C35.2298 22.5895 35.2951 22.5767 35.3406 22.5682L35.6261 23.919C35.5352 23.9474 35.4073 23.9801 35.2425 24.017C35.0778 24.0568 34.8775 24.081 34.6417 24.0895C34.2042 24.1065 33.8207 24.0483 33.4911 23.9148C33.1644 23.7812 32.9102 23.5739 32.7283 23.2926C32.5465 23.0114 32.457 22.6562 32.4599 22.2273V15.8864ZM38.5558 24.1236C38.1381 24.1236 37.766 24.0511 37.4393 23.9062C37.1126 23.7585 36.854 23.5412 36.6637 23.2543C36.4762 22.9645 36.3825 22.6037 36.3825 22.1719C36.3825 21.8082 36.4492 21.5028 36.5827 21.2557C36.7163 21.0085 36.8981 20.8097 37.1282 20.6591C37.3583 20.5085 37.6197 20.3949 37.9123 20.3182C38.2077 20.2415 38.5174 20.1875 38.8413 20.1562C39.2219 20.1165 39.5288 20.0795 39.7617 20.0455C39.9947 20.0085 40.1637 19.9545 40.2688 19.8835C40.3739 19.8125 40.4265 19.7074 40.4265 19.5682V19.5426C40.4265 19.2727 40.3413 19.0639 40.1708 18.9162C40.0032 18.7685 39.7646 18.6946 39.4549 18.6946C39.1282 18.6946 38.8683 18.767 38.6751 18.9119C38.4819 19.054 38.354 19.233 38.2915 19.4489L36.6126 19.3125C36.6978 18.9148 36.8654 18.571 37.1154 18.2812C37.3654 17.9886 37.6879 17.7642 38.0827 17.608C38.4805 17.4489 38.9407 17.3693 39.4634 17.3693C39.8271 17.3693 40.1751 17.4119 40.5075 17.4972C40.8427 17.5824 41.1396 17.7145 41.3981 17.8935C41.6594 18.0724 41.8654 18.3026 42.016 18.5838C42.1665 18.8622 42.2418 19.196 42.2418 19.5852V24H40.5202V23.0923H40.4691C40.364 23.2969 40.2234 23.4773 40.0472 23.6335C39.8711 23.7869 39.6594 23.9077 39.4123 23.9957C39.1651 24.081 38.8796 24.1236 38.5558 24.1236ZM39.0756 22.8707C39.3427 22.8707 39.5785 22.8182 39.783 22.7131C39.9876 22.6051 40.1481 22.4602 40.2646 22.2784C40.381 22.0966 40.4393 21.8906 40.4393 21.6605V20.9659C40.3825 21.0028 40.3043 21.0369 40.2049 21.0682C40.1083 21.0966 39.9989 21.1236 39.8768 21.1491C39.7546 21.1719 39.6325 21.1932 39.5103 21.2131C39.3881 21.2301 39.2773 21.2457 39.1779 21.2599C38.9648 21.2912 38.7788 21.3409 38.6197 21.4091C38.4606 21.4773 38.337 21.5696 38.2489 21.6861C38.1609 21.7997 38.1168 21.9418 38.1168 22.1122C38.1168 22.3594 38.2063 22.5483 38.3853 22.679C38.5671 22.8068 38.7972 22.8707 39.0756 22.8707ZM46.6076 24.1278C45.9371 24.1278 45.3604 23.9858 44.8775 23.7017C44.3974 23.4148 44.0281 23.017 43.7695 22.5085C43.5138 22 43.386 21.4148 43.386 20.7528C43.386 20.0824 43.5153 19.4943 43.7738 18.9886C44.0352 18.4801 44.4059 18.0838 44.886 17.7997C45.3661 17.5128 45.9371 17.3693 46.5991 17.3693C47.1701 17.3693 47.6701 17.473 48.0991 17.6804C48.5281 17.8878 48.8675 18.179 49.1175 18.554C49.3675 18.929 49.5053 19.3693 49.5309 19.875H47.8178C47.7695 19.5483 47.6417 19.2855 47.4343 19.0866C47.2298 18.8849 46.9613 18.7841 46.6289 18.7841C46.3477 18.7841 46.1019 18.8608 45.8917 19.0142C45.6843 19.1648 45.5224 19.3849 45.4059 19.6747C45.2894 19.9645 45.2312 20.3153 45.2312 20.7273C45.2312 21.1449 45.288 21.5 45.4016 21.7926C45.5181 22.0852 45.6815 22.3082 45.8917 22.4616C46.1019 22.6151 46.3477 22.6918 46.6289 22.6918C46.8363 22.6918 47.0224 22.6491 47.1871 22.5639C47.3548 22.4787 47.4925 22.3551 47.6005 22.1932C47.7113 22.0284 47.7837 21.831 47.8178 21.6009H49.5309C49.5025 22.1009 49.3661 22.5412 49.1218 22.9219C48.8803 23.2997 48.5465 23.5952 48.1204 23.8082C47.6942 24.0213 47.19 24.1278 46.6076 24.1278Z" fill="url(#paint0_linear_1_3)"/>
<path d="M52.3381 22.1165L52.3423 19.9389H52.6065L54.7031 17.4545H56.7869L53.9702 20.7443H53.5398L52.3381 22.1165ZM50.6932 24V15.2727H52.5085V24H50.6932ZM54.7841 24L52.858 21.1491L54.0682 19.8665L56.9105 24H54.7841Z" fill="url(#paint1_linear_1_3)"/>
<defs>
<linearGradient id="paint0_linear_1_3" x1="2.12342e-08" y1="24" x2="57" y2="24" gradientUnits="userSpaceOnUse">
<stop stop-color="#D5CECE"/>
<stop offset="1" stop-color="#848282"/>
</linearGradient>
<linearGradient id="paint1_linear_1_3" x1="28.5" y1="-3" x2="28.5" y2="27" gradientUnits="userSpaceOnUse">
<stop stop-color="#E6E6E6"/>
<stop offset="1" stop-color="#626161"/>
</linearGradient>
</defs>
</svg>
